<svg width="70" height="115" viewBox="0 0 70 115" fill="none" xmlns="http://www.w3.org/2000/svg">
<circle cx="35" cy="35" r="34.5" fill="white" stroke="#D4AB93"/>
<path d="M37.3283 50.9948V37.3348H41.9367L42.6217 31.9865H37.3283V28.5798C37.3283 27.0365 37.7583 25.9798 39.9733 25.9798H42.78V21.2115C41.4144 21.0651 40.0417 20.9944 38.6683 20.9998C34.595 20.9998 31.7983 23.4865 31.7983 28.0515V31.9765H27.22V37.3248H31.8083V50.9948H37.3283Z" fill="#D4AB93"/>
<path d="M19.6302 79.436V92.092H20.7502V79.436H19.6302ZM15.4582 84.252V85.274H17.5582V84.252H15.4582ZM17.1802 79.744V91.434H18.2862V79.744H17.1802ZM10.0542 81.032V81.984H15.8362V81.032H10.0542ZM9.94219 88.984C11.5662 88.984 14.2122 88.928 16.1862 88.55L16.1022 87.696C14.1842 87.948 11.4402 88.004 9.80219 88.004L9.94219 88.984ZM11.0902 81.648V88.27H12.1542V81.648H11.0902ZM13.7222 81.648V88.27H14.7862V81.648H13.7222ZM32.0051 79.422V92.106H33.1671V79.422H32.0051ZM26.4891 80.402C24.6271 80.402 23.2831 82.124 23.2831 84.812C23.2831 87.514 24.6271 89.236 26.4891 89.236C28.3651 89.236 29.7091 87.514 29.7091 84.812C29.7091 82.124 28.3651 80.402 26.4891 80.402ZM26.4891 81.452C27.7351 81.452 28.5891 82.768 28.5891 84.812C28.5891 86.87 27.7351 88.214 26.4891 88.214C25.2571 88.214 24.3891 86.87 24.3891 84.812C24.3891 82.768 25.2571 81.452 26.4891 81.452ZM40.768 80.304V81.27C40.768 83.426 38.388 85.358 36.162 85.778L36.68 86.744C39.214 86.17 41.776 84.028 41.776 81.27V80.304H40.768ZM40.978 80.304V81.27C40.978 84.042 43.554 86.17 46.074 86.744L46.592 85.778C44.38 85.358 41.986 83.44 41.986 81.27V80.304H40.978ZM35.7 89.432V90.384H47.166V89.432H35.7ZM53.7029 86.254V88.438H54.8509V86.254H53.7029ZM48.5649 85.624V86.576H60.0029V85.624H48.5649ZM49.8389 88.046V88.984H57.4269V92.092H58.5889V88.046H49.8389ZM50.0909 79.73V84.462H58.5189V79.73H57.3569V81.158H51.2389V79.73H50.0909ZM51.2389 82.068H57.3569V83.538H51.2389V82.068ZM15.6122 107.416C12.9102 107.416 11.2022 108.298 11.2022 109.754C11.2022 111.196 12.9102 112.064 15.6122 112.064C18.3002 112.064 20.0222 111.196 20.0222 109.754C20.0222 108.298 18.3002 107.416 15.6122 107.416ZM15.6122 108.326C17.6002 108.326 18.8602 108.872 18.8602 109.754C18.8602 110.622 17.6002 111.168 15.6122 111.168C13.6242 111.168 12.3502 110.622 12.3502 109.754C12.3502 108.872 13.6242 108.326 15.6122 108.326ZM11.3002 100.066V101.018H19.4482V100.066H11.3002ZM9.94219 105.33V106.268H21.3662V105.33H9.94219ZM14.6322 102.894V105.596H15.7802V102.894H14.6322ZM18.7762 100.066V101.144C18.7762 102.138 18.7762 103.062 18.4262 104.364L19.5742 104.504C19.9102 103.188 19.9102 102.166 19.9102 101.144V100.066H18.7762ZM25.7471 107.262V112.092H26.9371V107.262H25.7471ZM30.1011 107.262V112.092H31.2911V107.262H30.1011ZM22.8071 106.632V107.598H34.2871V106.632H22.8071ZM28.5191 99.94C25.8871 99.94 24.0951 101.004 24.0951 102.698C24.0951 104.378 25.8871 105.456 28.5191 105.456C31.1651 105.456 32.9431 104.378 32.9431 102.698C32.9431 101.004 31.1651 99.94 28.5191 99.94ZM28.5191 100.878C30.4511 100.878 31.7531 101.592 31.7531 102.698C31.7531 103.804 30.4511 104.518 28.5191 104.518C26.5871 104.518 25.2711 103.804 25.2711 102.698C25.2711 101.592 26.5871 100.878 28.5191 100.878ZM44.268 99.436V112.092H45.43V99.436H44.268ZM45.15 104.63V105.61H47.502V104.63H45.15ZM35.63 101.452V102.404H43.092V101.452H35.63ZM39.41 103.454C37.632 103.454 36.33 104.658 36.33 106.366C36.33 108.074 37.632 109.278 39.41 109.278C41.202 109.278 42.49 108.074 42.49 106.366C42.49 104.658 41.202 103.454 39.41 103.454ZM39.41 104.42C40.558 104.42 41.384 105.218 41.384 106.366C41.384 107.5 40.558 108.312 39.41 108.312C38.262 108.312 37.436 107.5 37.436 106.366C37.436 105.218 38.262 104.42 39.41 104.42ZM38.808 99.59V101.886H39.97V99.59H38.808ZM57.7909 99.436V112.092H58.9529V99.436H57.7909ZM54.0809 100.794V100.99C54.0809 104.35 52.3869 107.038 48.7329 108.802L49.3489 109.74C53.5769 107.668 55.2289 104.462 55.2289 100.794H54.0809ZM49.3069 100.794V101.746H54.5849V100.794H49.3069Z" fill="#D4AB93"/>
</svg>
