<svg width="70" height="115" viewBox="0 0 70 115" fill="none" xmlns="http://www.w3.org/2000/svg">
<circle cx="35" cy="35" r="34.5" fill="white" stroke="#D4AB93"/>
<path d="M25.5796 79.45V88.69H26.7556V79.45H25.5796ZM18.6216 90.86V91.812H27.1336V90.86H18.6216ZM18.6216 87.738V91.182H19.7696V87.738H18.6216ZM19.9656 80.318C18.0756 80.318 16.6616 81.606 16.6616 83.44C16.6616 85.26 18.0756 86.562 19.9656 86.562C21.8556 86.562 23.2556 85.26 23.2556 83.44C23.2556 81.606 21.8556 80.318 19.9656 80.318ZM19.9656 81.326C21.1976 81.326 22.1356 82.194 22.1356 83.44C22.1356 84.672 21.1976 85.54 19.9656 85.54C18.7336 85.54 17.7956 84.672 17.7956 83.44C17.7956 82.194 18.7336 81.326 19.9656 81.326ZM34.3285 80.304V81.27C34.3285 83.426 31.9485 85.358 29.7225 85.778L30.2405 86.744C32.7745 86.17 35.3365 84.028 35.3365 81.27V80.304H34.3285ZM34.5385 80.304V81.27C34.5385 84.042 37.1145 86.17 39.6345 86.744L40.1525 85.778C37.9405 85.358 35.5465 83.44 35.5465 81.27V80.304H34.5385ZM29.2605 89.432V90.384H40.7265V89.432H29.2605ZM42.6715 88.088V89.054H43.6655C46.0315 89.054 47.6835 88.984 49.6435 88.648L49.5175 87.696C47.6135 88.032 46.0035 88.088 43.6655 88.088H42.6715ZM42.6715 80.584V88.424H43.8335V81.55H48.5655V80.584H42.6715ZM43.5395 84.126V85.064H48.2855V84.126H43.5395ZM50.6935 79.436V92.092H51.8695V79.436H50.6935ZM51.5895 84.518V85.498H53.9415V84.518H51.5895ZM15.6122 107.416C12.9102 107.416 11.2022 108.298 11.2022 109.754C11.2022 111.196 12.9102 112.064 15.6122 112.064C18.3002 112.064 20.0222 111.196 20.0222 109.754C20.0222 108.298 18.3002 107.416 15.6122 107.416ZM15.6122 108.326C17.6002 108.326 18.8602 108.872 18.8602 109.754C18.8602 110.622 17.6002 111.168 15.6122 111.168C13.6242 111.168 12.3502 110.622 12.3502 109.754C12.3502 108.872 13.6242 108.326 15.6122 108.326ZM11.3002 100.066V101.018H19.4482V100.066H11.3002ZM9.94219 105.33V106.268H21.3662V105.33H9.94219ZM14.6322 102.894V105.596H15.7802V102.894H14.6322ZM18.7762 100.066V101.144C18.7762 102.138 18.7762 103.062 18.4262 104.364L19.5742 104.504C19.9102 103.188 19.9102 102.166 19.9102 101.144V100.066H18.7762ZM25.7471 107.262V112.092H26.9371V107.262H25.7471ZM30.1011 107.262V112.092H31.2911V107.262H30.1011ZM22.8071 106.632V107.598H34.2871V106.632H22.8071ZM28.5191 99.94C25.8871 99.94 24.0951 101.004 24.0951 102.698C24.0951 104.378 25.8871 105.456 28.5191 105.456C31.1651 105.456 32.9431 104.378 32.9431 102.698C32.9431 101.004 31.1651 99.94 28.5191 99.94ZM28.5191 100.878C30.4511 100.878 31.7531 101.592 31.7531 102.698C31.7531 103.804 30.4511 104.518 28.5191 104.518C26.5871 104.518 25.2711 103.804 25.2711 102.698C25.2711 101.592 26.5871 100.878 28.5191 100.878ZM44.268 99.436V112.092H45.43V99.436H44.268ZM45.15 104.63V105.61H47.502V104.63H45.15ZM35.63 101.452V102.404H43.092V101.452H35.63ZM39.41 103.454C37.632 103.454 36.33 104.658 36.33 106.366C36.33 108.074 37.632 109.278 39.41 109.278C41.202 109.278 42.49 108.074 42.49 106.366C42.49 104.658 41.202 103.454 39.41 103.454ZM39.41 104.42C40.558 104.42 41.384 105.218 41.384 106.366C41.384 107.5 40.558 108.312 39.41 108.312C38.262 108.312 37.436 107.5 37.436 106.366C37.436 105.218 38.262 104.42 39.41 104.42ZM38.808 99.59V101.886H39.97V99.59H38.808ZM57.7909 99.436V112.092H58.9529V99.436H57.7909ZM54.0809 100.794V100.99C54.0809 104.35 52.3869 107.038 48.7329 108.802L49.3489 109.74C53.5769 107.668 55.2289 104.462 55.2289 100.794H54.0809ZM49.3069 100.794V101.746H54.5849V100.794H49.3069Z" fill="#D4AB93"/>
<path d="M51.6562 27.9825C51.6373 26.5624 51.3715 25.1565 50.8706 23.8275C50.4363 22.7065 49.7729 21.6885 48.9228 20.8384C48.0728 19.9884 47.0547 19.325 45.9338 18.8906C44.6219 18.3982 43.236 18.1319 41.835 18.1031C40.0312 18.0225 39.4594 18 34.8806 18C30.3019 18 29.715 18 27.9244 18.1031C26.524 18.1321 25.1388 18.3984 23.8275 18.8906C22.7064 19.3247 21.6882 19.988 20.8381 20.8381C19.988 21.6882 19.3247 22.7064 18.8906 23.8275C18.3972 25.1384 18.1315 26.524 18.105 27.9244C18.0244 29.73 18 30.3019 18 34.8806C18 39.4594 18 40.0444 18.105 41.8369C18.1331 43.2394 18.3975 44.6231 18.8906 45.9375C19.3254 47.0583 19.9892 48.0761 20.8396 48.9258C21.69 49.7756 22.7082 50.4386 23.8294 50.8725C25.1371 51.3847 26.5226 51.6701 27.9263 51.7162C29.7319 51.7969 30.3038 51.8212 34.8825 51.8212C39.4613 51.8212 40.0481 51.8212 41.8388 51.7162C43.2397 51.6887 44.6257 51.423 45.9375 50.9306C47.0582 50.4958 48.076 49.8322 48.926 48.9822C49.776 48.1322 50.4395 47.1144 50.8744 45.9937C51.3675 44.6812 51.6319 43.2975 51.66 41.8931C51.7406 40.0894 51.765 39.5175 51.765 34.9369C51.7612 30.3581 51.7612 29.7769 51.6562 27.9825ZM34.8694 43.5394C30.0806 43.5394 26.2012 39.66 26.2012 34.8713C26.2012 30.0825 30.0806 26.2031 34.8694 26.2031C37.1683 26.2031 39.3731 27.1164 40.9987 28.742C42.6243 30.3675 43.5375 32.5723 43.5375 34.8713C43.5375 37.1702 42.6243 39.375 40.9987 41.0005C39.3731 42.6261 37.1683 43.5394 34.8694 43.5394ZM43.8825 27.9037C43.617 27.904 43.354 27.8519 43.1087 27.7504C42.8634 27.6489 42.6405 27.5 42.4527 27.3123C42.265 27.1246 42.1161 26.9016 42.0146 26.6563C41.9131 26.4109 41.861 26.148 41.8612 25.8825C41.8612 25.6172 41.9135 25.3545 42.015 25.1094C42.1166 24.8642 42.2654 24.6415 42.453 24.4539C42.6406 24.2663 42.8633 24.1175 43.1084 24.016C43.3535 23.9144 43.6163 23.8622 43.8816 23.8622C44.1469 23.8622 44.4096 23.9144 44.6547 24.016C44.8998 24.1175 45.1225 24.2663 45.3101 24.4539C45.4977 24.6415 45.6466 24.8642 45.7481 25.1094C45.8496 25.3545 45.9019 25.6172 45.9019 25.8825C45.9019 27 44.9981 27.9037 43.8825 27.9037Z" fill="#D4AB93"/>
<path d="M34.8694 40.502C37.9791 40.502 40.5 37.9811 40.5 34.8713C40.5 31.7616 37.9791 29.2407 34.8694 29.2407C31.7597 29.2407 29.2387 31.7616 29.2387 34.8713C29.2387 37.9811 31.7597 40.502 34.8694 40.502Z" fill="#D4AB93"/>
</svg>
