<svg width="70" height="115" viewBox="0 0 70 115" fill="none" xmlns="http://www.w3.org/2000/svg">
<circle cx="35" cy="35" r="34.5" fill="white" stroke="#D4AB93"/>
<path d="M35 20C44.665 20 52.5 26.1067 52.5 33.6417C52.5 41.175 44.665 47.2817 35 47.2817C34.0376 47.2822 33.0762 47.2209 32.1217 47.0983L24.775 51.9033C23.94 52.345 23.645 52.2967 23.9883 51.215L25.475 45.085C20.675 42.6517 17.5 38.435 17.5 33.6417C17.5 26.1083 25.335 20 35 20ZM44.845 33.4333L47.295 31.06C47.4364 30.9132 47.5152 30.7172 47.515 30.5134C47.5147 30.3096 47.4354 30.1138 47.2937 29.9673C47.152 29.8209 46.9589 29.7351 46.7552 29.7282C46.5515 29.7212 46.3531 29.7935 46.2017 29.93L42.9883 33.04V30.47C42.9883 30.2614 42.9055 30.0613 42.7579 29.9137C42.6104 29.7662 42.4103 29.6833 42.2017 29.6833C41.993 29.6833 41.7929 29.7662 41.6454 29.9137C41.4979 30.0613 41.415 30.2614 41.415 30.47V34.7317C41.3855 34.8532 41.3855 34.9801 41.415 35.1017V37.5C41.415 37.7086 41.4979 37.9087 41.6454 38.0563C41.7929 38.2038 41.993 38.2867 42.2017 38.2867C42.4103 38.2867 42.6104 38.2038 42.7579 38.0563C42.9055 37.9087 42.9883 37.7086 42.9883 37.5V35.2283L43.7 34.54L46.08 37.9283C46.1394 38.0129 46.2149 38.085 46.3022 38.1404C46.3895 38.1958 46.4868 38.2335 46.5886 38.2513C46.6905 38.2691 46.7948 38.2667 46.8957 38.2441C46.9966 38.2216 47.0921 38.1794 47.1767 38.12C47.2613 38.0606 47.3333 37.9851 47.3887 37.8978C47.4441 37.8105 47.4818 37.7132 47.4996 37.6114C47.5174 37.5095 47.515 37.4052 47.4925 37.3043C47.4699 37.2034 47.4278 37.1079 47.3683 37.0233L44.845 33.4317V33.4333ZM39.915 36.64H37.4817V30.495C37.4724 30.2928 37.3855 30.1021 37.2391 29.9623C37.0928 29.8225 36.8982 29.7445 36.6958 29.7445C36.4935 29.7445 36.2989 29.8225 36.1525 29.9623C36.0062 30.1021 35.9193 30.2928 35.91 30.495V37.4267C35.91 37.86 36.26 38.2133 36.695 38.2133H39.915C40.1236 38.2133 40.3237 38.1305 40.4713 37.9829C40.6188 37.8354 40.7017 37.6353 40.7017 37.4267C40.7017 37.218 40.6188 37.0179 40.4713 36.8704C40.3237 36.7229 40.1236 36.64 39.915 36.64ZM30.1533 34.82L31.3133 31.975L32.3767 34.82H30.1533ZM34.3583 35.6333L34.3617 35.6067C34.3613 35.4085 34.2856 35.2179 34.15 35.0733L32.4067 30.4067C32.3336 30.1843 32.1944 29.9895 32.0076 29.8483C31.8209 29.7072 31.5956 29.6263 31.3617 29.6167C31.1261 29.6156 30.8957 29.6864 30.7013 29.8194C30.5069 29.9525 30.3576 30.1417 30.2733 30.3617L27.505 37.1533C27.4659 37.249 27.4461 37.3514 27.4466 37.4547C27.4471 37.558 27.468 37.6602 27.508 37.7555C27.548 37.8507 27.6063 37.9372 27.6798 38.0099C27.7532 38.0826 27.8402 38.1401 27.9358 38.1792C28.0315 38.2182 28.1339 38.2381 28.2372 38.2376C28.3405 38.2371 28.4427 38.2162 28.538 38.1762C28.6332 38.1362 28.7197 38.0778 28.7924 38.0044C28.8651 37.931 28.9226 37.844 28.9617 37.7483L29.5117 36.3933H32.9617L33.46 37.7267C33.4939 37.8263 33.5474 37.9182 33.6174 37.9968C33.6875 38.0754 33.7726 38.1391 33.8677 38.1842C33.9628 38.2293 34.066 38.2549 34.1711 38.2594C34.2763 38.2639 34.3813 38.2473 34.4799 38.2105C34.5785 38.1736 34.6688 38.1174 34.7453 38.0451C34.8218 37.9728 34.8829 37.8858 34.9252 37.7894C34.9675 37.693 34.99 37.5891 34.9914 37.4839C34.9928 37.3786 34.973 37.2742 34.9333 37.1767L34.3583 35.6333ZM28.8217 30.5033C28.8217 30.295 28.739 30.0951 28.5918 29.9477C28.4447 29.8002 28.245 29.7171 28.0367 29.7167H22.6283C22.4197 29.7167 22.2196 29.7995 22.0721 29.9471C21.9245 30.0946 21.8417 30.2947 21.8417 30.5033C21.8417 30.712 21.9245 30.9121 22.0721 31.0596C22.2196 31.2071 22.4197 31.29 22.6283 31.29H24.5617V37.5167C24.5617 37.7253 24.6445 37.9254 24.7921 38.0729C24.9396 38.2205 25.1397 38.3033 25.3483 38.3033C25.557 38.3033 25.7571 38.2205 25.9046 38.0729C26.0521 37.9254 26.135 37.7253 26.135 37.5167V31.29H28.035C28.2436 31.29 28.4437 31.2071 28.5913 31.0596C28.7388 30.9121 28.8217 30.712 28.8217 30.5033Z" fill="#D4AB93"/>
<path d="M15.3182 80.752V80.878C15.3182 84.322 14.0582 87.15 10.0542 89.124L10.6842 90.02C15.2202 87.766 16.4522 84.406 16.4522 80.752H15.3182ZM10.7402 80.752V81.69H16.0042V80.752H10.7402ZM15.1362 83.888L10.1102 84.224L10.2922 85.26L15.1362 84.784V83.888ZM18.4962 79.422V92.092H19.6722V79.422H18.4962ZM19.3502 84.56V85.526H21.6882V84.56H19.3502ZM28.1971 80.752V80.878C28.1971 84.322 26.9371 87.15 22.9331 89.124L23.5631 90.02C28.0991 87.766 29.3311 84.406 29.3311 80.752H28.1971ZM23.6191 80.752V81.69H28.8831V80.752H23.6191ZM28.0151 83.888L22.9891 84.224L23.1711 85.26L28.0151 84.784V83.888ZM31.3751 79.422V92.092H32.5511V79.422H31.3751ZM32.2291 84.56V85.526H34.5671V84.56H32.2291ZM40.824 86.59V89.74H41.986V86.59H40.824ZM41.412 80.262C38.738 80.262 36.806 81.564 36.806 83.58C36.806 85.596 38.738 86.898 41.412 86.898C44.086 86.898 46.004 85.596 46.004 83.58C46.004 81.564 44.086 80.262 41.412 80.262ZM41.412 81.186C43.414 81.186 44.884 82.138 44.884 83.58C44.884 85.022 43.414 85.974 41.412 85.974C39.396 85.974 37.926 85.022 37.926 83.58C37.926 82.138 39.396 81.186 41.412 81.186ZM35.7 89.516V90.482H47.166V89.516H35.7ZM48.5649 86.254V87.206H60.0029V86.254H48.5649ZM53.7029 84.546V86.576H54.8509V84.546H53.7029ZM49.8389 88.312V89.264H57.3709V92.092H58.5329V88.312H49.8389ZM50.0769 84.028V84.938H58.6589V84.028H50.0769ZM50.0769 79.772V84.448H51.2249V80.682H58.6029V79.772H50.0769ZM50.8889 81.872V82.754H58.2669V81.872H50.8889ZM15.6122 107.416C12.9102 107.416 11.2022 108.298 11.2022 109.754C11.2022 111.196 12.9102 112.064 15.6122 112.064C18.3002 112.064 20.0222 111.196 20.0222 109.754C20.0222 108.298 18.3002 107.416 15.6122 107.416ZM15.6122 108.326C17.6002 108.326 18.8602 108.872 18.8602 109.754C18.8602 110.622 17.6002 111.168 15.6122 111.168C13.6242 111.168 12.3502 110.622 12.3502 109.754C12.3502 108.872 13.6242 108.326 15.6122 108.326ZM11.3002 100.066V101.018H19.4482V100.066H11.3002ZM9.94219 105.33V106.268H21.3662V105.33H9.94219ZM14.6322 102.894V105.596H15.7802V102.894H14.6322ZM18.7762 100.066V101.144C18.7762 102.138 18.7762 103.062 18.4262 104.364L19.5742 104.504C19.9102 103.188 19.9102 102.166 19.9102 101.144V100.066H18.7762ZM25.7471 107.262V112.092H26.9371V107.262H25.7471ZM30.1011 107.262V112.092H31.2911V107.262H30.1011ZM22.8071 106.632V107.598H34.2871V106.632H22.8071ZM28.5191 99.94C25.8871 99.94 24.0951 101.004 24.0951 102.698C24.0951 104.378 25.8871 105.456 28.5191 105.456C31.1651 105.456 32.9431 104.378 32.9431 102.698C32.9431 101.004 31.1651 99.94 28.5191 99.94ZM28.5191 100.878C30.4511 100.878 31.7531 101.592 31.7531 102.698C31.7531 103.804 30.4511 104.518 28.5191 104.518C26.5871 104.518 25.2711 103.804 25.2711 102.698C25.2711 101.592 26.5871 100.878 28.5191 100.878ZM44.268 99.436V112.092H45.43V99.436H44.268ZM45.15 104.63V105.61H47.502V104.63H45.15ZM35.63 101.452V102.404H43.092V101.452H35.63ZM39.41 103.454C37.632 103.454 36.33 104.658 36.33 106.366C36.33 108.074 37.632 109.278 39.41 109.278C41.202 109.278 42.49 108.074 42.49 106.366C42.49 104.658 41.202 103.454 39.41 103.454ZM39.41 104.42C40.558 104.42 41.384 105.218 41.384 106.366C41.384 107.5 40.558 108.312 39.41 108.312C38.262 108.312 37.436 107.5 37.436 106.366C37.436 105.218 38.262 104.42 39.41 104.42ZM38.808 99.59V101.886H39.97V99.59H38.808ZM57.7909 99.436V112.092H58.9529V99.436H57.7909ZM54.0809 100.794V100.99C54.0809 104.35 52.3869 107.038 48.7329 108.802L49.3489 109.74C53.5769 107.668 55.2289 104.462 55.2289 100.794H54.0809ZM49.3069 100.794V101.746H54.5849V100.794H49.3069Z" fill="#D4AB93"/>
</svg>
