<svg width="45" height="46" viewBox="0 0 45 46" fill="none" xmlns="http://www.w3.org/2000/svg">
<ellipse cx="22.9042" cy="23" rx="22.0359" ry="23" fill="#A0D3F8"/>
<path d="M17.7044 9.14904C18.4255 8.9181 19.1993 8.95646 19.897 9.25775C20.5947 9.55904 21.1742 10.1051 21.5391 10.805L21.661 11.0658L22.752 13.6407C23.0831 14.4222 23.1905 15.2899 23.061 16.1359C22.9315 16.9818 22.5707 17.7686 22.0236 18.3984L21.8044 18.6295L20.0856 20.3327C19.7758 20.6442 20.0082 21.8503 21.1288 23.9123C22.1373 25.7678 22.958 26.6343 23.3617 26.6816H23.4326L23.5199 26.664L26.8982 25.5665C27.3522 25.4186 27.8367 25.4128 28.2938 25.5497C28.7508 25.6866 29.1611 25.9604 29.4755 26.3385L29.6255 26.5398L31.8617 29.8306C32.3 30.4756 32.5184 31.26 32.4809 32.0545C32.4435 32.8489 32.1524 33.6062 31.6557 34.2015L31.4547 34.422L30.5615 35.3218C29.7595 36.1286 28.7561 36.6738 27.6709 36.8926C26.5856 37.1113 25.464 36.9945 24.4395 36.5558C21.2507 35.1905 18.3537 32.0712 15.7219 27.2294C13.0852 22.3754 11.9894 18.1446 12.4788 14.5212C12.6269 13.4259 13.0515 12.3936 13.7075 11.534C14.3636 10.6744 15.2265 10.0196 16.2048 9.63916L16.5228 9.52714L17.7044 9.14904V9.14904Z" fill="white"/>
</svg>
