<svg width="46" height="46" viewBox="0 0 46 46" fill="none" xmlns="http://www.w3.org/2000/svg">
<circle cx="23" cy="23" r="23" fill="#A2A7AA"/>
<path d="M31.4148 13.5307C29.4553 11.5555 26.869 10.3268 24.1019 10.0565C21.3348 9.78622 18.5602 10.4913 16.2565 12.0502C13.9528 13.6091 12.2643 15.924 11.4823 18.596C10.7002 21.268 10.8734 24.1295 11.9722 26.6873C12.0867 26.925 12.1243 27.1926 12.0797 27.4528L11.0287 32.5121C10.9882 32.706 10.9965 32.907 11.0528 33.097C11.1091 33.287 11.2116 33.46 11.3512 33.6005C11.4656 33.7142 11.6018 33.8036 11.7516 33.8632C11.9015 33.9228 12.0618 33.9514 12.223 33.9473H12.4618L17.5733 32.9187C17.8331 32.8874 18.0965 32.9245 18.3376 33.0264C20.8916 34.1268 23.7488 34.3003 26.4168 33.517C29.0848 32.7338 31.3963 31.0428 32.9529 28.7357C34.5094 26.4285 35.2135 23.6498 34.9436 20.8785C34.6737 18.1073 33.4469 15.5171 31.4745 13.5547L31.4148 13.5307ZM18.1943 23.1829C17.9581 23.1829 17.7272 23.1127 17.5308 22.9813C17.3344 22.8499 17.1813 22.6631 17.0909 22.4445C17.0006 22.226 16.9769 21.9855 17.023 21.7535C17.0691 21.5215 17.1828 21.3083 17.3498 21.1411C17.5169 20.9738 17.7297 20.8599 17.9613 20.8137C18.193 20.7676 18.4331 20.7913 18.6513 20.8818C18.8696 20.9723 19.0561 21.1256 19.1873 21.3223C19.3185 21.519 19.3886 21.7503 19.3886 21.9868C19.3886 22.304 19.2627 22.6082 19.0388 22.8326C18.8148 23.0569 18.511 23.1829 18.1943 23.1829ZM22.9714 23.1829C22.7352 23.1829 22.5043 23.1127 22.3079 22.9813C22.1115 22.8499 21.9584 22.6631 21.868 22.4445C21.7776 22.226 21.754 21.9855 21.8 21.7535C21.8461 21.5215 21.9599 21.3083 22.1269 21.1411C22.2939 20.9738 22.5067 20.8599 22.7384 20.8137C22.97 20.7676 23.2102 20.7913 23.4284 20.8818C23.6466 20.9723 23.8331 21.1256 23.9644 21.3223C24.0956 21.519 24.1656 21.7503 24.1656 21.9868C24.1656 22.304 24.0398 22.6082 23.8158 22.8326C23.5919 23.0569 23.2881 23.1829 22.9714 23.1829ZM27.7484 23.1829C27.5122 23.1829 27.2813 23.1127 27.0849 22.9813C26.8885 22.8499 26.7355 22.6631 26.6451 22.4445C26.5547 22.226 26.531 21.9855 26.5771 21.7535C26.6232 21.5215 26.7369 21.3083 26.904 21.1411C27.071 20.9738 27.2838 20.8599 27.5154 20.8137C27.7471 20.7676 27.9872 20.7913 28.2055 20.8818C28.4237 20.9723 28.6102 21.1256 28.7414 21.3223C28.8727 21.519 28.9427 21.7503 28.9427 21.9868C28.9427 22.304 28.8169 22.6082 28.5929 22.8326C28.3689 23.0569 28.0652 23.1829 27.7484 23.1829Z" fill="white"/>
</svg>
