<svg width="34" height="42" viewBox="0 0 34 42" fill="none" xmlns="http://www.w3.org/2000/svg">
<g clip-path="url(#clip0_20_217)">
<path d="M18.7016 32.8156C18.8823 33.1789 19.1338 33.5238 19.2276 33.9078C19.2893 34.2549 19.2609 34.612 19.1453 34.9449C19.1247 35.0093 18.5759 35.0162 18.3632 34.8897C17.5628 34.4137 16.8745 34.4804 16.1793 35.0989C15.1319 36.0187 13.833 36.0854 12.6187 35.7267C11.8023 35.4967 11.4959 35.775 11.0179 36.2924C9.63212 37.8123 8.27375 39.3759 6.73473 40.7257C4.92357 42.3146 4.20093 42.2135 2.38978 40.6636C1.8051 40.1842 1.26194 39.6557 0.766141 39.0839C4.02257 39.4564 5.19341 36.7408 7.02972 35.1012C7.07033 35.0611 7.10241 35.0131 7.12403 34.9601C7.14565 34.9072 7.15636 34.8504 7.15551 34.7931C6.99314 32.8685 8.38124 32.0774 9.70073 31.206C10.4783 30.6909 11.194 30.0815 12.0699 29.4124C9.95457 26.7933 7.9536 24.3145 5.89547 21.7782L4.61713 22.5899C3.74814 20.7204 2.04447 22.3048 0.706682 21.47C0.782147 20.955 0.830168 20.3203 0.976524 19.7225C1.14346 19.0326 1.59625 18.3428 0.674663 17.8277C0.610632 17.7909 0.731833 17.2 0.903345 16.9999C1.3292 16.5955 1.78314 16.222 2.26171 15.8824C0.544315 14.5234 -0.221764 12.7804 0.0229258 10.6419C0.267615 8.5034 1.61225 7.16511 3.38682 6.14185C3.10555 5.39913 2.82427 4.70009 2.5773 3.98726C2.02846 2.40293 2.5064 1.22791 3.94939 0.565665C4.5694 0.259962 5.27981 0.195093 5.94445 0.383493C6.60908 0.571894 7.18119 1.00031 7.55112 1.58663C7.79581 1.97063 8.04736 2.35005 8.36294 2.83293C11.2489 -0.666841 14.4253 -0.0413886 17.5857 2.20058L19.5386 0C20.682 1.89245 22.2165 0.289728 23.4536 0.772615C24.2815 1.96603 22.3354 3.68373 24.3546 4.73458L22.9025 6.45688C26.5408 8.68045 27.4236 11.0742 25.8091 14.7786L27.8672 16.3606C26.4311 17.2804 25.2945 18.0714 24.0962 18.7544C22.8979 19.4373 22.699 19.8374 23.1518 21.0538C23.3222 21.5204 23.4688 21.9955 23.5909 22.4772C23.6148 22.6988 23.6148 22.9224 23.5909 23.1441C22.9368 23.2383 22.3079 23.374 21.6745 23.4085C20.9221 23.4614 20.0486 23.236 20.0737 24.6042L18.489 23.9397C18.3358 24.3996 18.1825 24.848 17.9561 25.5194C20.1904 24.7491 20.9702 26.3702 21.8277 27.6533C22.0564 28.012 21.6905 28.7846 21.551 29.6538C22.5275 30.1942 23.7875 30.9438 25.091 31.5992C26.6483 32.3856 28.2194 33.1582 29.8361 33.8089C30.9796 34.2688 32.2076 34.8184 33.2847 33.3169C33.3899 35.9957 31.0276 38.2009 28.9031 37.4352C26.4539 36.5522 24.1374 35.2944 21.7797 34.1654C20.7918 33.694 19.845 33.1329 18.8823 32.6132L18.7016 32.8156ZM22.1959 31.6429C22.5458 31.7785 22.9002 31.9004 23.241 32.0522C25.7267 33.1582 28.2056 34.2849 30.7028 35.3657C31.0344 35.5105 31.4575 35.437 31.8463 35.4623C31.8463 35.3657 31.8623 35.2691 31.8691 35.1725C30.808 34.8391 29.6875 34.6321 28.6973 34.1493C26.1475 32.9099 23.6663 31.5325 21.1325 30.2402C20.73 30.0355 20.2178 30.0378 19.7604 29.9436L19.7398 30.1942L22.2416 31.675L20.06 30.8679L18.4249 30.2701C18.3952 30.3621 18.3678 30.4517 18.3403 30.5437C19.1613 30.9116 20.0005 31.2473 20.7964 31.6658C21.1074 31.8291 21.3223 32.1809 21.583 32.4477L18.0682 30.9047C21.3429 33.9446 29.1867 37.3938 30.417 36.8626L21.5464 32.4293C21.9169 32.4868 22.3194 32.4707 22.651 32.6178C25.2808 33.7882 27.8946 35.0001 30.5245 36.1705C30.6951 36.2286 30.8793 36.2334 31.0527 36.1843C28.3657 34.8989 25.5301 33.5514 22.7036 32.1809C22.4978 32.0798 22.3628 31.8268 22.1959 31.6452V31.6429ZM15.7928 22.1691C14.5671 24.1466 12.7193 24.9974 10.4234 24.9629C10.9836 26.2943 12.39 26.9818 12.5775 28.5202C13.6455 28.2902 14.8644 28.0419 16.0764 27.7591C16.1859 27.7381 16.2898 27.694 16.3812 27.6298C16.4727 27.5656 16.5496 27.4827 16.6069 27.3866C17.0757 26.0207 17.4988 24.641 17.9378 23.2636C16.5635 24.0385 16.4903 22.6221 15.7928 22.1691ZM20.156 7.42265C18.784 7.26399 18.0019 8.00901 17.3387 8.88281C16.1152 10.4924 16.0649 12.2653 16.9088 14.0474C17.3158 14.9074 17.9493 15.6018 19.239 15.9421C17.6223 12.7436 18.7885 10.1314 20.156 7.42265ZM10.1192 14.9626C8.46127 14.9626 7.63573 15.841 6.99085 16.8412C5.93205 18.4807 5.90003 20.226 6.9291 21.9C7.37274 22.6267 7.82782 23.4775 9.03068 23.4269C7.49166 20.3778 8.59848 17.7702 10.1192 14.9626ZM4.64915 6.94897C4.13919 6.94897 3.8259 6.87538 3.5652 6.94897C0.747844 7.86875 -0.281228 12.5022 1.90268 14.4958C2.13136 14.7142 2.61159 14.6797 3.17415 14.8062C2.33718 11.8376 3.07582 9.42778 4.64915 6.94897ZM18.194 33.5859C17.3501 31.268 17.3524 31.2726 14.7637 31.8406C14.3956 31.9211 13.9954 31.8912 13.6501 32.0246C13.3734 32.1303 12.996 32.3649 12.9411 32.6063C12.7982 33.3892 12.6959 34.1789 12.6347 34.9725C13.1279 35.1446 13.6528 35.205 14.1718 35.1493C14.6909 35.0937 15.1913 34.9234 15.6373 34.6505C16.3942 34.2113 17.2678 33.9607 18.1917 33.5859H18.194ZM12.1956 1.41647C11.5736 1.51534 11.1643 1.49925 10.8236 1.64641C9.24337 2.36614 8.13655 4.28849 8.28062 6.02918C8.3065 6.32004 8.41706 6.59677 8.59849 6.82479C9.32112 7.67789 10.0826 8.4965 10.6452 9.12425C10.0369 6.29132 10.2427 5.07721 12.1956 1.41647ZM19.5478 16.0295C21.2354 15.0017 22.6853 14.2658 23.9636 13.2978C25.1207 12.4217 25.0521 12.148 24.1443 10.7684C22.7996 12.516 21.2286 13.7117 18.6124 12.6378C18.9395 13.7922 19.1842 14.6797 19.5546 16.0295H19.5478ZM8.65108 20.3571C8.76999 21.0929 8.85461 21.6034 8.93693 22.1162C9.09701 23.0912 9.62298 23.4637 10.5148 22.9601C11.6285 22.3346 12.7856 21.7483 13.785 20.9619C14.9764 20.0283 14.9284 19.8604 14.0022 18.3612C12.7285 20.1226 11.194 21.2815 8.65795 20.3571H8.65108ZM11.2123 9.45997C11.9944 9.16104 12.5615 8.75174 13.1127 8.77014C14.3201 8.81612 15.0999 8.12399 15.882 7.43185C16.9957 6.44538 16.9865 6.21313 16.0489 4.78977C14.7957 6.68222 13.1767 7.71469 10.6269 6.7926L11.2123 9.45997ZM3.1307 12.2584C3.21074 12.9322 3.2016 13.3943 3.33881 13.8059C3.428 14.0658 3.73214 14.4314 3.95167 14.4383C5.59818 14.4958 7.11892 14.2084 8.34237 12.9046C9.38973 11.787 9.45833 11.6904 8.45442 10.2786C7.24012 12.1733 5.63248 13.1529 3.13757 12.2584H3.1307ZM11.3404 12.9919C11.1986 14.7303 12.2848 16.4411 13.4785 16.4158C14.7203 16.3997 15.4612 15.1396 15.3789 13.0839C14.0091 14.1187 12.6713 13.7416 11.3472 12.9919H11.3404ZM9.21135 23.7994C10.8327 24.6341 12.2277 24.2731 13.5403 23.489C14.9261 22.6589 15.7699 20.9872 15.5687 19.5247C14.0251 21.8173 11.8732 23.059 9.22278 23.7925L9.21135 23.7994ZM19.3351 16.1813C22.4795 17.4115 25.5804 15.3282 25.8319 11.7617C24.1877 14.1693 22.029 15.4041 19.3419 16.1744L19.3351 16.1813ZM12.0424 10.1659C11.345 10.4579 11.1666 11.111 11.5416 11.9204C11.9601 12.8241 13.5472 13.2886 14.4161 12.7804C15.1822 12.3343 15.651 11.6514 15.1982 10.8052C15.0039 10.4418 14.3841 10.2096 13.9222 10.1337C13.6935 10.0946 13.1264 10.6373 13.1675 10.7615C13.291 11.1225 13.6432 11.4076 13.9039 11.7226L14.2789 12.1825C13.7873 12.1825 13.3253 12.3021 13.2201 12.1595C12.7929 11.5153 12.402 10.8474 12.0493 10.159L12.0424 10.1659ZM4.85724 3.99186C4.96015 3.23304 5.15225 2.72715 5.02419 2.32475C4.96931 2.14999 4.1735 2.01662 3.85334 2.16609C3.133 2.50411 2.93861 3.16406 3.37997 3.88839C3.96082 4.85416 5.22771 4.93004 6.24534 4.07234C6.87193 3.54576 7.30643 2.86512 6.8788 2.08791C6.65011 1.6694 6.05783 1.45096 5.7514 1.23021C5.7514 2.10401 5.82458 2.80304 5.71024 3.46529C5.67822 3.67914 5.15454 3.8217 4.86411 3.98496L4.85724 3.99186ZM1.96901 17.3701C2.99579 17.3195 4.12776 17.331 5.23915 17.1747C5.64392 17.1172 6.0967 16.7309 6.32996 16.3675C6.45344 16.1744 6.22706 15.6524 6.02582 15.3765C5.70795 14.9419 3.69555 15.0017 3.37539 15.4248C2.90431 16.0433 2.45838 16.6987 1.97586 17.3632L1.96901 17.3701ZM19.3488 23.2889C18.8914 22.0587 18.5507 20.9389 18.0682 19.8834C17.9127 19.5431 17.4027 19.3683 17.0551 19.1177C16.8392 19.4181 16.6429 19.7322 16.4674 20.0582C16.3353 20.2925 16.2847 20.5643 16.3233 20.8308C16.5095 21.3452 16.7256 21.8481 16.9705 22.3369C18.0499 21.838 18.3701 23.1372 19.3602 23.282L19.3488 23.2889ZM20.6088 7.19271C22.8957 8.11249 24.3203 9.64393 25.2191 11.8031C26.1086 10.7914 25.5941 9.98655 25.1276 9.22773C24.6684 8.47028 23.9924 7.87002 23.1881 7.50564C22.3838 7.14126 21.4887 7.02978 20.6203 7.18581L20.6088 7.19271ZM12.685 1.21411C14.7592 2.20058 16.273 3.68833 17.0871 5.87972C17.979 5.08181 17.6062 4.32298 17.2106 3.62624C16.2319 1.87866 14.7111 1.06235 12.6965 1.21642L12.685 1.21411ZM9.57267 11.3823C10.1352 10.3936 10.03 9.48526 9.39658 8.60227C8.37666 7.18121 6.78047 6.47068 5.12252 6.7903C7.23554 7.73078 8.70139 9.18634 9.5841 11.3846L9.57267 11.3823ZM7.89872 34.3516C9.86538 33.9101 10.8876 32.358 12.0516 30.9737C10.2724 31.6084 8.57562 32.3534 7.91015 34.3539L7.89872 34.3516ZM18.3906 19.1752C19.813 20.5802 20.1012 20.5733 22.3079 19.1568C21.0205 17.8484 20.8169 17.8484 18.4021 19.1844L18.3906 19.1752ZM18.8892 5.25886C20.6843 3.59175 20.3916 4.18041 19.5386 1.40497C17.9607 2.39833 17.8624 2.94791 18.9006 5.26806L18.8892 5.25886ZM5.00818 17.7518H2.22513L1.56882 20.6422L5.00818 17.7518ZM6.99543 15.3834C7.83926 14.9235 8.78371 14.6407 9.36456 14.0152C9.86766 13.4771 9.95685 12.5504 10.2267 11.7962L9.99802 11.7778L6.64097 14.8292L6.99543 15.3834ZM19.9045 4.78058L20.0554 5.0841L22.4863 4.74148C22.6075 3.84239 22.715 2.9985 22.8431 2.09251L19.9045 4.78058ZM18.9486 20.2145L18.7199 20.3594C19.0081 21.1665 19.2985 21.969 19.5798 22.7623L22.4726 22.5002L18.9486 20.2145ZM4.0157 5.39223L3.9814 5.70496L7.49166 6.07747C7.59914 5.24047 7.70433 4.42876 7.81868 3.54806C5.93434 5.36004 5.79257 5.43132 4.02714 5.40143L4.0157 5.39223ZM15.1685 9.24612L14.75 8.9104L15.8934 9.89687C16.3942 8.53559 17.9081 7.80206 17.7389 6.50057C16.9476 7.33757 16.0581 8.29185 15.1685 9.24612ZM23.0512 5.05881C22.077 5.21977 21.2652 5.37153 20.451 5.48651C18.8503 5.71645 18.7885 5.74865 18.6216 6.92827C19.9502 5.83603 21.9924 6.97196 23.0489 5.05881H23.0512ZM8.91178 37.3041C7.09605 38.125 6.06698 39.9232 4.52338 41.0729C6.43516 40.3831 7.78438 38.9804 8.90949 37.3041H8.91178ZM20.4808 17.6299L20.3253 17.0367C19.4288 17.2229 18.5095 17.3425 17.6543 17.6437C17.4553 17.7127 17.4759 18.4049 17.3936 18.8096L17.668 19.0165L20.4808 17.6299ZM4.87783 21.408C6.11271 20.456 5.19341 19.1637 5.63019 17.9404C3.60636 18.8625 4.79093 20.2306 4.87783 21.408ZM7.6746 35.7474L2.92261 39.9232C3.75272 40.229 6.9817 37.5732 7.67918 35.7474H7.6746ZM19.9342 26.6139C18.4204 25.7608 17.4187 26.407 17.4919 27.9798L19.9342 26.6139ZM12.8817 30.7254L12.9915 31.3807L16.9728 30.6702C16.9477 30.5115 16.9202 30.3529 16.895 30.1919L12.8817 30.7254ZM26.0629 16.7608C26.0172 16.6458 25.9737 16.5308 25.9303 16.4158L23.026 16.7378C23.4308 17.3747 23.6366 17.7012 23.8904 18.1036L26.0629 16.7608ZM15.0496 19.3224C15.8477 18.4026 15.8225 18.1335 14.8415 16.7608L13.9268 17.1586L15.0496 19.3224ZM3.63838 40.613C4.78179 40.5004 7.63573 37.8537 7.93302 36.6626L3.63838 40.613ZM3.96997 19.1614L2.05589 20.8354L2.1954 21.0653L4.23524 20.8193C4.14834 20.2605 4.07516 19.8029 3.96311 19.1522L3.96997 19.1614ZM22.3491 1.75219L22.2325 1.52224L20.2269 1.88326C20.3664 2.47882 20.4716 2.93181 20.6226 3.58486C21.2995 2.85823 21.8231 2.29946 22.3491 1.75219ZM20.4442 20.7204L22.5618 22.0587L22.7516 21.8725L21.8712 19.9248L20.4442 20.7204ZM22.6532 9.12885C22.6876 9.03687 22.7196 8.94259 22.7516 8.85061L20.5791 7.51463L19.8748 8.97709C20.8855 8.11479 21.7683 8.68505 22.6532 9.11045V9.12885ZM12.1956 6.30282C12.7971 6.10736 13.3939 6.01998 13.4054 5.88891C13.4152 5.27994 13.3716 4.67129 13.275 4.07004L12.9389 4.09764L12.1956 6.30282ZM21.6471 12.1894C21.535 11.3593 21.4435 10.7017 21.3543 10.0463L21.0159 10.0762L20.3413 11.9503L21.6471 12.1894ZM5.13624 9.07826L4.7109 8.81152C4.3816 9.3427 3.99054 9.84858 3.75729 10.4211C3.6864 10.6005 4.04314 10.9569 4.30613 11.4076C4.64915 10.4602 4.87783 9.7681 5.13167 9.07826H5.13624ZM20.0417 11.7134C20.2841 10.9017 20.4991 10.1636 20.7758 9.25762C19.3031 10.0739 19.0812 10.8351 20.0371 11.7134H20.0417ZM12.669 3.52277L12.3214 3.30892C11.9784 3.83089 11.5713 4.32758 11.3289 4.89555C11.2443 5.0933 11.5576 5.46582 11.8298 6.04528L12.669 3.52277ZM12.4975 1.64411C12.2437 2.16609 12.0401 2.59379 11.9532 2.76855L14.7683 2.97779L12.4975 1.64411ZM10.6292 17.1287L10.2107 16.8619C9.85091 17.3766 9.53424 17.9203 9.26394 18.4876C9.19077 18.6693 9.53837 19.0234 9.79907 19.4879L10.6292 17.1287ZM10.2496 19.5247L11.5165 19.8351C11.3907 18.9613 11.2878 18.2853 11.1963 17.6116L10.8807 17.6346C10.6863 18.2048 10.4965 18.7682 10.245 19.5247H10.2496ZM4.68802 11.6881C5.25058 11.5502 5.81542 11.4927 5.83143 11.3961C5.84577 10.7719 5.81904 10.1474 5.7514 9.52666H5.40609C5.1957 10.1291 4.99904 10.7201 4.68346 11.6881H4.68802ZM4.34044 8.27805H6.95655L4.98074 7.14212L4.34044 8.27805ZM16.7235 29.7826L16.6961 29.3687L12.8771 29.9229C12.8931 30.0378 12.9068 30.1528 12.9229 30.2655L16.7235 29.7826ZM14.6654 3.64004V5.9257L15.8637 4.34828L14.6654 3.64004ZM23.1266 18.421L23.2981 18.0898C22.9688 17.2206 22.4292 16.8527 21.2903 17.5058L23.1266 18.421ZM22.7836 9.57035V11.8077L23.943 10.2234L22.7836 9.57035ZM13.833 17.876L12.6393 17.2137V19.458L13.833 17.876ZM16.6504 28.9548C16.6343 28.8191 16.6184 28.6834 16.6046 28.5501L12.9023 29.2192L12.9366 29.4492L16.6504 28.9548ZM8.28747 9.84628L7.14406 9.12195V11.3616C7.56255 10.8167 7.87356 10.4004 8.28747 9.85318V9.84628ZM10.4417 15.1741L9.65728 16.7723L11.4867 15.9238L10.4417 15.1741ZM14.0022 5.67276C14.6448 4.43565 14.4001 3.62854 13.4122 3.50437L14.0022 5.67276ZM6.39628 11.1915C7.10291 10.1475 6.88794 9.24382 5.84515 8.9196L6.39628 11.1915Z" fill="black"/>
</g>
<defs>
<clipPath id="clip0_20_217">
<rect width="33.3258" height="41.8708" fill="white"/>
</clipPath>
</defs>
</svg>
