<svg width="46" height="46" viewBox="0 0 46 46" fill="none" xmlns="http://www.w3.org/2000/svg">
<circle cx="23" cy="23" r="23" fill="#F8A0A5"/>
<path d="M17.5727 9.14904C18.3253 8.9181 19.133 8.95646 19.8612 9.25775C20.5895 9.55904 21.1943 10.1051 21.5752 10.805L21.7024 11.0658L22.8411 13.6407C23.1867 14.4222 23.2988 15.2899 23.1637 16.1359C23.0285 16.9818 22.6519 17.7686 22.0808 18.3984L21.8521 18.6295L20.0581 20.3327C19.7347 20.6442 19.9773 21.8503 21.1469 23.9123C22.1995 25.7678 23.0561 26.6343 23.4775 26.6816H23.5515L23.6426 26.664L27.1687 25.5665C27.6426 25.4186 28.1483 25.4128 28.6253 25.5497C29.1024 25.6866 29.5306 25.9604 29.8588 26.3385L30.0153 26.5398L32.3494 29.8306C32.8068 30.4756 33.0348 31.26 32.9957 32.0545C32.9566 32.8489 32.6528 33.6062 32.1344 34.2015L31.9245 34.422L30.9923 35.3218C30.1551 36.1286 29.108 36.6738 27.9752 36.8926C26.8424 37.1113 25.6718 36.9945 24.6024 36.5558C21.2742 35.1905 18.2503 32.0712 15.5035 27.2294C12.7514 22.3754 11.6076 18.1446 12.1185 14.5212C12.273 13.4259 12.7162 12.3936 13.401 11.534C14.0857 10.6744 14.9864 10.0196 16.0074 9.63916L16.3394 9.52714L17.5727 9.14904Z" fill="white"/>
</svg>
